<?xml version="1.0" encoding="UTF-8" standalone="no"?>
<!-- Created with Inkscape (http://www.inkscape.org/) -->

<svg
   width="210mm"
   height="297mm"
   viewBox="0 0 210 297"
   version="1.1"
   id="svg5"
   inkscape:version="1.1.1 (3bf5ae0d25, 2021-09-20)"
   sodipodi:docname="voeux.svg"
   xmlns:inkscape="http://www.inkscape.org/namespaces/inkscape"
   xmlns:sodipodi="http://sodipodi.sourceforge.net/DTD/sodipodi-0.dtd"
   xmlns="http://www.w3.org/2000/svg"
   xmlns:svg="http://www.w3.org/2000/svg">
  <sodipodi:namedview
     id="namedview7"
     pagecolor="#ffffff"
     bordercolor="#666666"
     borderopacity="1.0"
     inkscape:pageshadow="2"
     inkscape:pageopacity="0.0"
     inkscape:pagecheckerboard="0"
     inkscape:document-units="mm"
     showgrid="false"
     inkscape:zoom="0.76791526"
     inkscape:cx="396.52813"
     inkscape:cy="561.91096"
     inkscape:window-width="1920"
     inkscape:window-height="1051"
     inkscape:window-x="-9"
     inkscape:window-y="-9"
     inkscape:window-maximized="1"
     inkscape:current-layer="layer1" />
  <defs
     id="defs2">
    <rect
       x="231.79641"
       y="326.85898"
       width="11.720043"
       height="75.529167"
       id="rect27547" />
    <rect
       x="131.52493"
       y="393.27256"
       width="296.90776"
       height="177.10288"
       id="rect3951" />
  </defs>
  <g
     inkscape:label="Calque 1"
     inkscape:groupmode="layer"
     id="layer1">
    <rect
       style="fill:#008080;fill-rule:evenodd;stroke-width:0.264583"
       id="rect110"
       width="161.24826"
       height="95.095123"
       x="18.261021"
       y="56.850349" />
    <path
       sodipodi:type="star"
       style="fill:#ffff00;fill-rule:evenodd"
       id="path134"
       inkscape:flatsided="false"
       sodipodi:sides="5"
       sodipodi:cx="161.47615"
       sodipodi:cy="140.64052"
       sodipodi:r1="143.45792"
       sodipodi:r2="89.086037"
       sodipodi:arg1="0.27580592"
       sodipodi:arg2="0.90412446"
       inkscape:rounded="0"
       inkscape:randomized="0"
       d="m 299.51222,179.70733 -82.94759,30.94448 -49.58774,73.34113 -55.06216,-69.32548 -85.075007,-24.49709 48.917305,-73.78998 -2.991508,-88.481159 85.29472,23.720764 83.22615,-30.187274 3.79773,88.450219 z"
       transform="matrix(0.26458333,0,0,0.26458333,6.8909513,19.639211)"
       inkscape:transform-center-x="4.0458871"
       inkscape:transform-center-y="-0.47663094" />
    <path
       sodipodi:type="spiral"
       style="fill:none;fill-rule:evenodd;stroke:#000000"
       id="path163"
       sodipodi:cx="595.11774"
       sodipodi:cy="507.86853"
       sodipodi:expansion="1"
       sodipodi:revolution="3"
       sodipodi:radius="153.33136"
       sodipodi:argument="-17.643494"
       sodipodi:t0="0"
       d="m 595.11774,507.86853 c 2.74224,7.18208 -8.32837,7.23987 -11.93709,4.55779 -9.77939,-7.26829 -5.30302,-21.95678 2.82152,-28.43196 14.53289,-11.58257 35.55613,-4.29597 44.92682,10.20081 13.75186,21.27462 3.34325,49.3704 -17.58011,61.4217 -27.88756,16.06248 -63.26494,2.41873 -77.91657,-24.95941 -18.43757,-34.4526 -1.50983,-77.19871 32.33871,-94.41144 40.99512,-20.84691 91.15478,-0.61015 110.90631,39.71801 23.27649,47.52535 -0.28369,105.12477 -47.09731,127.40118 -54.04817,25.71899 -119.10406,-1.17366 -143.89605,-54.47661 -28.17023,-60.5662 2.06091,-133.08987 61.85591,-160.39092 67.08095,-30.62764 147.08043,2.94621 176.88579,69.23521 33.08959,73.59335 -3.83004,161.07456 -76.61451,193.38066"
       transform="matrix(0.26458264,0,0,0.2649463,4.2233205e-4,-0.1367777)" />
    <text
       xml:space="preserve"
       transform="matrix(0.39985087,-0.1471091,0.16522549,0.35600866,-83.36692,-5.9137337)"
       id="text3949"
       style="font-style:normal;font-variant:normal;font-weight:normal;font-stretch:normal;font-size:40px;line-height:1.25;font-family:Pristina;-inkscape-font-specification:Pristina;text-align:center;white-space:pre;shape-inside:url(#rect3951);fill:#000000;fill-opacity:1;stroke:none"
       x="129.6875"
       y="0"><tspan
         x="141.21973"
         y="424.21896"
         id="tspan31352">Bonne année 2022 !!!</tspan></text>
    <text
       xml:space="preserve"
       transform="scale(0.26458333)"
       id="text27545"
       style="fill:black;fill-opacity:1;line-height:1.25;stroke:none;font-family:sans-serif;font-style:normal;font-weight:normal;font-size:40px;white-space:pre;shape-inside:url(#rect27547)" />
  </g>
</svg>
